<svg xmlns="http://www.w3.org/2000/svg" xmlns:xlink="http://www.w3.org/1999/xlink" viewBox="0 0 64 64" id="chat"><defs><linearGradient id="a" x1="41" x2="41" y1="63.989" y2=".097" gradientUnits="userSpaceOnUse"><stop offset="0" stop-color="#fd5900"></stop><stop offset="1" stop-color="#fedc00"></stop></linearGradient><linearGradient id="b" x1="24" x2="24" y1="63.989" y2=".097" xlink:href="#a"></linearGradient></defs><path fill="url(#a)" d="M57.936 41.96V13a7 7 0 0 0-6.987-7H30.987A7 7 0 0 0 24 13v3h10.979A9.059 9.059 0 0 1 44 25v9h5.053a4.975 4.975 0 0 1 3.867 1.837L58 42.058Z"></path><path fill="url(#b)" d="M42 25a7.009 7.009 0 0 0-7-7H13a7.009 7.009 0 0 0-7 7v33l5.026-6.163A4.982 4.982 0 0 1 14.9 50H35a7.007 7.007 0 0 0 7-7Zm-7 16H13a1 1 0 0 1 0-2h22a1 1 0 0 1 0 2Zm0-6H13a1 1 0 0 1 0-2h22a1 1 0 0 1 0 2Zm0-6H13a1 1 0 0 1 0-2h22a1 1 0 0 1 0 2Z"></path></svg>